<?xml version="1.0" encoding="utf-8"?>
<!-- Generator: Adobe Illustrator 19.0.0, SVG Export Plug-In . SVG Version: 6.00 Build 0)  -->
<svg version="1.1" id="Layer_1" xmlns="http://www.w3.org/2000/svg" xmlns:xlink="http://www.w3.org/1999/xlink" x="0px" y="0px"
	 viewBox="0 0 328.6 317.9" style="enable-background:new 0 0 328.6 317.9;" xml:space="preserve">
<style type="text/css">
	.st0{fill:#FFFFFF;}
</style>
<g id="XMLID_843_">
	<path id="XMLID_863_" class="st0" d="M164.6,67.8c-17.3,0.2-33.5,4.5-48.4,13.5c-0.4,0.3-0.7,0.3-1-0.2c-1.7-3.1-3.5-6.2-5.2-9.3
		c-0.4-0.6,0.1-0.8,0.4-1c5.2-4.2,8.5-9.6,9.7-16.3c2.2-12.6-4.8-25-16.9-29.5c-6.1-2.3-12.3-2.3-18.4-0.1c-0.9,0.3-1.4,0.2-1.8-0.7
		c-0.5-1.1-1.2-2.2-1.9-3.3c-0.5-0.8-0.2-1.1,0.5-1.4c5.3-2.8,10.8-5.2,16.3-7.3c12.2-4.7,24.8-8,37.7-10c7.9-1.2,15.9-2,23.9-2.2
		c27.6-0.7,54.1,4.4,79.5,15.3c2.8,1.2,5.5,2.5,8.1,3.9c0.6,0.3,0.6,0.5,0.3,1.1c-1.9,3.2-3.8,6.5-5.7,9.8c-0.4,0.7-0.3,0.9,0.4,1.3
		c5.8,3,9.7,7.5,11.3,14c2.7,11.1-5,22.6-16.3,24.4c-4.9,0.8-9.4-0.4-13.8-2.3c-0.6-0.3-1.3-0.5-1.8-0.9c-0.6-0.3-0.8-0.1-1.1,0.4
		c-2.3,4-4.6,7.9-6.8,11.9c-0.6,1.1-0.6,1.1-1.7,0.5c-9.7-5.2-20.1-8.6-31-10.3c-1.8-0.3-3.6-0.5-5.4-0.7
		C172,68,168.3,67.8,164.6,67.8z"/>
	<path id="XMLID_856_" class="st0" d="M162.4,317.9c-26.4-0.4-51.7-5.7-75.7-16.7c-1.8-0.8-3.5-1.7-5.2-2.5
		c-0.6-0.3-0.6-0.5-0.3-1.1c1.8-3.1,3.6-6.3,5.4-9.4c0.4-0.6,0.3-0.8-0.3-1.1c-3-1.5-5.7-3.3-7.8-5.9c-4.8-5.9-6.1-12.6-3.5-19.7
		c2.6-7.2,7.9-11.6,15.5-13c5.1-1,9.9,0.1,14.3,2.8c0.8,0.5,1.6,1.4,2.3,1.2c0.8-0.2,1-1.4,1.5-2.2c2.3-3.9,4.5-7.8,6.8-11.7
		c0.3-0.5,0.4-0.7,1.1-0.4c10.9,5.9,22.5,9.5,34.8,11.1c19.1,2.4,37.4-0.3,54.9-8.2c2.1-1,4.3-2,6.3-3.2c0.5-0.3,0.8-0.3,1.2,0.3
		c1.5,2.6,3,5.3,4.5,7.9c0.3,0.5,0.2,0.7-0.2,1.1c-7.4,5.9-10.9,13.5-10.5,22.9c0.6,11.8,9.8,22.3,21.4,24.4
		c5.3,1,10.4,0.5,15.4-1.6c0.6-0.2,0.8-0.1,1.1,0.4c0.7,1.3,1.4,2.6,2.2,3.8c0.4,0.7,0.3,0.9-0.4,1.3c-5,2.6-10.2,4.9-15.4,7
		c-13.1,5.1-26.6,8.6-40.5,10.7c-7.9,1.2-15.8,1.9-23.7,1.9C165.8,317.9,164.1,317.9,162.4,317.9z"/>
	<path id="XMLID_853_" class="st0" d="M319.8,161.2c-2.7,0-5.3,0-8,0c-0.7,0-0.9,0.2-1.1,0.9c-0.8,3.9-2.4,7.4-5.2,10.3
		c-5.4,5.6-12,7.7-19.6,5.9c-7.6-1.9-12.4-6.9-14.6-14.3c0-0.2-0.1-0.3-0.1-0.5c-0.6-2.3-0.6-2.3-3-2.3c-4.4,0-8.8,0-13.2,0
		c-1.1,0-1.2-0.3-1.2-1.3c0.1-12.5-1.8-24.6-5.7-36.5c-3.7-11.1-9.7-20.7-17.6-29.2c-3.5-3.7-7.3-7.2-11.4-10.2
		c-0.5-0.4-0.5-0.7-0.2-1.2c1.5-2.5,3-5.1,4.4-7.6c0.3-0.6,0.6-0.7,1.3-0.5c12.7,4.7,26.5-0.5,32.9-12.5c5.9-10.9,3.1-25-6.4-32.8
		c-0.7-0.6-0.8-1-0.3-1.8c0.9-1.4,1.7-2.9,2.5-4.4c0.3-0.7,0.6-0.7,1.2-0.3c6.3,3.5,12.1,7.7,17.6,12.3c16.2,13.7,29.3,30,39.5,48.5
		c6.6,12,10.9,24.9,13.7,38.3c2.1,9.9,3.2,19.8,3.4,29.9c0.1,2.7,0,5.5-0.1,8.2c0,0.8-0.3,0.9-1,0.9
		C325,161.2,322.4,161.2,319.8,161.2z"/>
	<path id="XMLID_850_" class="st0" d="M9,156.2c2.6,0,5.2,0,7.9,0c0.8,0,1.1-0.3,1.2-1c0.9-4.5,2.9-8.3,6.3-11.4
		c11.3-10.3,29.5-5,33.2,10.3c0.5,2,0.5,2,2.6,2c4.6,0,9.2,0,13.8,0c0.8,0,1,0.2,1,1c-0.1,12.2,1.7,24,5.4,35.7
		c3.4,10.6,8.8,20,16.2,28.3c4,4.5,8.3,8.6,13.1,12.2c0.5,0.4,0.6,0.6,0.3,1.1c-1.7,2.8-3.3,5.7-4.9,8.6c-0.3,0.6-0.6,0.7-1.3,0.4
		c-10.3-3.7-19.7-2.1-27.8,5.2c-12.1,11-11.3,30.2,1.6,40.4c0.4,0.3,0.6,0.6,0.2,1.1c-0.8,1.3-1.5,2.5-2.2,3.9
		c-0.3,0.6-0.6,0.7-1.2,0.3c-5.4-3-10.5-6.6-15.4-10.5c-13.1-10.6-24.1-23.1-33.6-37c-7.6-11.2-13.6-23.1-17.7-36
		c-2.7-8.4-4.6-17-5.9-25.7c-1.2-8.3-1.8-16.7-1.7-25.1c0-1.1,0.1-2.1,0.1-3.2c0-0.6,0.2-0.8,0.8-0.7C3.6,156.2,6.3,156.2,9,156.2z"
		/>
	<path id="XMLID_847_" class="st0" d="M213.7,267.9c0.4-7.4,3.7-13.2,10.2-17.2c0.8-0.5,1.7-1,2.6-1.4c0.6-0.3,0.7-0.6,0.3-1.2
		c-2.4-4-4.7-8.1-7-12.2c-0.4-0.7-1.3-1.5-1.1-2.2c0.2-0.6,1.2-1,1.8-1.5c11.1-8.9,20-19.6,25.5-32.9c3-7.3,5-14.8,6.3-22.6
		c0.4-2.7,0.8-5.4,1-8.1c0.1-0.8,0.3-1.1,1.2-1.1c3.4,0.1,6.8,0.1,10.2,0c0.8,0,1.1,0.2,1.4,0.9c4,9.4,11.1,15,21.2,16.5
		c12.1,1.7,23.7-5.2,28.2-16.6c0.3-0.6,0.5-0.9,1.2-0.9c3.6,0,7.2,0,10.9,0c0.8,0,1,0.3,1,1c-0.3,7.3-1.1,14.5-2.4,21.6
		c-2,11.3-5.2,22.3-9.7,32.9c-4.6,10.8-10.7,20.7-17.7,30.1c-6.3,8.5-13.2,16.4-20.9,23.5c-7.2,6.7-14.9,12.6-23.4,17.5
		c-0.7,0.4-1,0.4-1.4-0.4c-1.8-3.2-3.6-6.3-5.4-9.4c-0.4-0.7-0.7-0.8-1.4-0.4c-2.5,1.7-5.1,3.1-8.1,3.8c-11,2.5-22.2-4.8-24.2-16
		C213.9,270.7,213.8,269.4,213.7,267.9z"/>
	<path id="XMLID_844_" class="st0" d="M69.1,149.7c-1.8,0-3.6,0-5.3,0c-0.6,0-0.9-0.2-1.1-0.7c-4.1-9.7-11.3-15.4-21.7-16.8
		c-11.8-1.6-23.3,5.4-27.7,16.6c-0.3,0.7-0.6,0.9-1.3,0.9c-3.7,0-7.4,0-11.2,0c-0.6,0-0.8-0.2-0.8-0.8c1-23.7,6.6-46.1,18.5-66.8
		c7.2-12.5,16-23.9,26-34.4c7.7-8,16-15.2,25.2-21.3c1.6-1,3.2-2,4.8-3c0.5-0.3,0.7-0.2,1,0.3c1.7,3.1,3.5,6.2,5.3,9.4
		c0.4,0.7,0.7,0.7,1.3,0.3c2.8-1.7,5.8-3.1,9.1-3.6c8.2-1.2,16.8,3.1,20.6,10.6c5.1,9.9,1.6,21.5-8.1,27c-0.5,0.3-1,0.6-1.5,0.9
		c-1.1,0.6-1.1,0.6-0.5,1.7c2.7,4.8,5.5,9.7,8.2,14.5c0.4,0.6,0.3,0.9-0.3,1.3c-10,7.6-18.2,16.8-24.1,28
		c-3.9,7.3-6.3,15.2-8.1,23.2c-0.9,3.9-1.5,7.9-1.9,11.9c-0.1,0.6-0.2,0.8-0.8,0.7C72.8,149.7,71,149.7,69.1,149.7z"/>
</g>
</svg>
